<svg xmlns="http://www.w3.org/2000/svg" xmlns:xlink="http://www.w3.org/1999/xlink" version="1.1" x="0px" y="0px" viewBox="0 0 90 112.5" enable-background="new 0 0 90 90" xml:space="preserve"><path d="M46.478,63.859c-0.004,0-0.007,0-0.01,0l-29.694-0.342c-5.948,0-10.797-4.919-10.797-10.964  c0-6.022,4.95-11.112,10.808-11.112h3.891c1.345-3.44,5.391-6.801,10.307-6.801h1.741c1.304-4.955,5.766-8.5,10.8-8.5h2.028  c0.771,0,26.574,0.282,27.672,0.294c5.951,0,10.801,4.893,10.801,10.906c0,6.011-4.85,10.902-10.811,10.902h-3.815  c-1.165,4.452-4.739,6.8-10.383,6.8h-1.64c-0.023,0.018-0.047,0.034-0.07,0.051C56.033,60.121,51.449,63.859,46.478,63.859z   M16.784,43.143c-4.936,0-9.106,4.31-9.106,9.411c0,5.107,4.086,9.263,9.106,9.263l29.7,0.344c4.316-0.004,8.294-3.367,9.25-7.823  c0.068-0.313,0.302-0.555,0.596-0.639c0.206-0.165,0.474-0.357,0.842-0.357h1.843c5.155,0,8.059-1.999,8.872-6.114  c0.08-0.398,0.429-0.686,0.833-0.686h4.493c5.023,0,9.109-4.127,9.109-9.2c0-5.075-4.086-9.204-9.109-9.204  c-0.277-0.004-26.901-0.294-27.662-0.294h-2.028c-4.408,0-8.301,3.223-9.259,7.664c-0.088,0.409-0.462,0.689-0.878,0.67  c-0.075,0.074-0.289,0.166-0.562,0.166h-1.843c-4.411,0-7.982,3.147-8.885,6.19c-0.108,0.362-0.44,0.609-0.817,0.609H16.784z"/><text x="0" y="105" fill="#000000" font-size="5px" font-weight="bold" font-family="'Helvetica Neue', Helvetica, Arial-Unicode, Arial, Sans-serif">Created by Gilad Sotil</text><text x="0" y="110" fill="#000000" font-size="5px" font-weight="bold" font-family="'Helvetica Neue', Helvetica, Arial-Unicode, Arial, Sans-serif">from the Noun Project</text></svg>