<svg xmlns="http://www.w3.org/2000/svg" xmlns:xlink="http://www.w3.org/1999/xlink" version="1.1" x="0px" y="0px" viewBox="-247 370.9 100 125" style="enable-background:new -247 370.9 100 100;" xml:space="preserve"><style type="text/css">
	.st0{fill:#010101;}
</style><g><path class="st0" d="M-210.5,423.5c-3.1,0-5.7-2.6-5.7-5.7c0-0.3-0.2-0.5-0.5-0.5s-0.5,0.2-0.5,0.5c0,3.1-2.6,5.7-5.7,5.7   c-0.3,0-0.5,0.2-0.5,0.5s0.2,0.5,0.5,0.5c3.1,0,5.7,2.6,5.7,5.7c0,0.3,0.2,0.5,0.5,0.5s0.5-0.2,0.5-0.5c0-3.1,2.6-5.7,5.7-5.7   c0.3,0,0.5-0.2,0.5-0.5S-210.2,423.5-210.5,423.5z M-216.7,427.6c-0.7-1.7-2-3-3.7-3.7c1.7-0.7,3-2,3.7-3.7c0.7,1.7,2,3,3.7,3.7   C-214.6,424.6-216,426-216.7,427.6z"/><path class="st0" d="M-199.2,409.1c0,0.6,0.4,1,1,1s1-0.4,1-1c0-4.4,3.6-8.1,8.1-8.1c0.6,0,1-0.4,1-1s-0.4-1-1-1   c-4.4,0-8.1-3.6-8.1-8.1c0-0.6-0.4-1-1-1s-1,0.4-1,1c0,4.4-3.6,8.1-8.1,8.1c-0.6,0-1,0.4-1,1s0.4,1,1,1   C-202.9,401-199.2,404.6-199.2,409.1z M-198.2,395.3c1,2.1,2.7,3.7,4.7,4.7c-2.1,1-3.7,2.7-4.7,4.7c-1-2.1-2.7-3.7-4.7-4.7   C-200.9,399-199.2,397.3-198.2,395.3z"/><path class="st0" d="M-171.2,435.1c-7.6,0-13.7-6.2-13.7-13.7c0-0.6-0.4-1-1-1s-1,0.4-1,1c0,7.6-6.2,13.7-13.7,13.7   c-0.6,0-1,0.4-1,1s0.4,1,1,1c7.6,0,13.7,6.2,13.7,13.7c0,0.6,0.4,1,1,1s1-0.4,1-1c0-7.6,6.2-13.7,13.7-13.7c0.6,0,1-0.4,1-1   S-170.6,435.1-171.2,435.1z M-185.9,445.4c-1.6-4.3-5-7.7-9.3-9.3c4.3-1.6,7.7-5,9.3-9.3c1.6,4.3,5,7.7,9.3,9.3   C-180.9,437.7-184.3,441.1-185.9,445.4z"/></g><text x="-247" y="485.9" fill="#000000" font-size="5px" font-weight="bold" font-family="'Helvetica Neue', Helvetica, Arial-Unicode, Arial, Sans-serif">Created by Franco Mateo</text><text x="-247" y="490.9" fill="#000000" font-size="5px" font-weight="bold" font-family="'Helvetica Neue', Helvetica, Arial-Unicode, Arial, Sans-serif">from the Noun Project</text></svg>